<svg aria-hidden="true" style="width:0;height:0;position:absolute;overflow:hidden" xmlns="http://www.w3.org/2000/svg"><defs><symbol id="icon-close-mob" viewBox="0 0 32 32"><path d="m17.253 15.752 7.371-7.32a.88.88 0 0 0-.639-1.456h-.001l-.035-.001a.89.89 0 0 0-.581.215l.001-.001-7.37 7.318-7.37-7.326a.895.895 0 0 0-1.523.627v.001a.88.88 0 0 0 .261.626l7.378 7.318-7.376 7.315a.882.882 0 0 0-.052 1.296.887.887 0 0 0 1.303-.05l.001-.001 7.376-7.317 7.37 7.317a.892.892 0 0 0 1.467-.633v-.002l.001-.033a.882.882 0 0 0-.214-.576l.001.001-7.37-7.317z"/></symbol></defs></svg>