<svg aria-hidden="true" style="position: absolute; width: 0; height: 0; overflow: hidden;" version="1.1" xmlns="http://www.w3.org/2000/svg" xmlns:xlink="http://www.w3.org/1999/xlink">
<defs>
<symbol id="icon-close-mob" viewBox="0 0 32 32">
<path d="M17.253 15.752l7.371-7.32c0.134-0.153 0.215-0.355 0.215-0.576 0-0.477-0.38-0.866-0.854-0.88l-0.001-0c-0.010-0-0.023-0.001-0.035-0.001-0.222 0-0.424 0.081-0.581 0.215l0.001-0.001-7.37 7.318-7.37-7.326c-0.162-0.158-0.383-0.256-0.627-0.256-0.49 0-0.889 0.394-0.896 0.883v0.001c0 0.235 0.094 0.461 0.261 0.626l7.378 7.318-7.376 7.315c-0.19 0.163-0.31 0.403-0.31 0.672 0 0.244 0.099 0.465 0.258 0.624v0c0.161 0.161 0.383 0.26 0.628 0.26 0.27 0 0.512-0.12 0.675-0.31l0.001-0.001 7.376-7.317 7.37 7.317c0.154 0.131 0.356 0.21 0.576 0.21 0.476 0 0.866-0.373 0.891-0.843l0-0.002c0-0.010 0.001-0.022 0.001-0.033 0-0.22-0.081-0.421-0.214-0.576l0.001 0.001-7.37-7.317z"></path>
</symbol>
</defs>
</svg>
